<svg xmlns="http://www.w3.org/2000/svg" viewBox="0 0 400 400">
  <defs>
    <linearGradient id="bg4" x1="0" y1="0" x2="0" y2="1">
      <stop offset="0%" stop-color="#fff8e1"/>
      <stop offset="100%" stop-color="#fff3c4"/>
    </linearGradient>
    <linearGradient id="petal4a" x1="0" y1="0" x2="1" y2="1">
      <stop offset="0%" stop-color="#ffee58"/>
      <stop offset="100%" stop-color="#fdd835"/>
    </linearGradient>
    <linearGradient id="petal4b" x1="0" y1="0" x2="0" y2="1">
      <stop offset="0%" stop-color="#fff176"/>
      <stop offset="100%" stop-color="#fbc02d"/>
    </linearGradient>
    <linearGradient id="orchid-leaf" x1="0" y1="0" x2="0" y2="1">
      <stop offset="0%" stop-color="#558b2f"/>
      <stop offset="100%" stop-color="#33691e"/>
    </linearGradient>
  </defs>
  <rect width="400" height="400" fill="url(#bg4)" rx="20"/>
  <!-- Pot -->
  <path d="M155 345 L162 385 L238 385 L245 345 Z" fill="#5d4037"/>
  <rect x="148" y="335" width="104" height="16" rx="6" fill="#795548"/>
  <!-- Leaves -->
  <path d="M200 340 C180 310 140 300 130 280" stroke="#558b2f" stroke-width="8" fill="none" stroke-linecap="round"/>
  <path d="M200 340 C220 310 260 300 270 280" stroke="#558b2f" stroke-width="8" fill="none" stroke-linecap="round"/>
  <ellipse cx="125" cy="275" rx="30" ry="10" fill="url(#orchid-leaf)" transform="rotate(-20 125 275)"/>
  <ellipse cx="275" cy="275" rx="30" ry="10" fill="url(#orchid-leaf)" transform="rotate(20 275 275)"/>
  <!-- Flower stem -->
  <path d="M200 330 C200 280 190 240 180 200 C170 160 175 120 185 90" stroke="#558b2f" stroke-width="4" fill="none" stroke-linecap="round"/>
  <!-- Orchid flowers -->
  <g transform="translate(185,85)">
    <ellipse cx="0" cy="-15" rx="14" ry="20" fill="url(#petal4a)"/>
    <ellipse cx="-18" cy="5" rx="14" ry="18" fill="url(#petal4b)" transform="rotate(30 -18 5)"/>
    <ellipse cx="18" cy="5" rx="14" ry="18" fill="url(#petal4b)" transform="rotate(-30 18 5)"/>
    <ellipse cx="-10" cy="-12" rx="8" ry="14" fill="url(#petal4a)" transform="rotate(15 -10 -12)"/>
    <ellipse cx="10" cy="-12" rx="8" ry="14" fill="url(#petal4a)" transform="rotate(-15 10 -12)"/>
    <circle cx="0" cy="0" r="6" fill="#f9a825"/>
    <circle cx="0" cy="0" r="3" fill="#e65100" opacity="0.6"/>
  </g>
  <g transform="translate(178,130) scale(0.8)">
    <ellipse cx="0" cy="-12" rx="12" ry="16" fill="url(#petal4a)"/>
    <ellipse cx="-15" cy="4" rx="12" ry="15" fill="url(#petal4b)" transform="rotate(30 -15 4)"/>
    <ellipse cx="15" cy="4" rx="12" ry="15" fill="url(#petal4b)" transform="rotate(-30 15 4)"/>
    <circle cx="0" cy="0" r="5" fill="#f9a825"/>
    <circle cx="0" cy="0" r="2.5" fill="#e65100" opacity="0.6"/>
  </g>
  <g transform="translate(173,170) scale(0.6)">
    <ellipse cx="0" cy="-12" rx="12" ry="16" fill="url(#petal4a)"/>
    <ellipse cx="-15" cy="4" rx="12" ry="15" fill="url(#petal4b)" transform="rotate(30 -15 4)"/>
    <ellipse cx="15" cy="4" rx="12" ry="15" fill="url(#petal4b)" transform="rotate(-30 15 4)"/>
    <circle cx="0" cy="0" r="5" fill="#f9a825"/>
  </g>
  <circle cx="300" cy="80" r="60" fill="white" opacity="0.08"/>
</svg>