<svg xmlns="http://www.w3.org/2000/svg" viewBox="0 0 400 400">
  <defs>
    <linearGradient id="bg2" x1="0" y1="0" x2="0.5" y2="1">
      <stop offset="0%" stop-color="#f1f8e9"/>
      <stop offset="100%" stop-color="#dcedc8"/>
    </linearGradient>
    <linearGradient id="leaf2a" x1="0" y1="0" x2="0" y2="1">
      <stop offset="0%" stop-color="#558b2f"/>
      <stop offset="100%" stop-color="#33691e"/>
    </linearGradient>
    <linearGradient id="leaf2b" x1="0" y1="0" x2="1" y2="1">
      <stop offset="0%" stop-color="#7cb342"/>
      <stop offset="100%" stop-color="#558b2f"/>
    </linearGradient>
  </defs>
  <rect width="400" height="400" fill="url(#bg2)" rx="20"/>
  <!-- Pot -->
  <path d="M160 345 L165 385 L235 385 L240 345 Z" fill="#6d4c41"/>
  <rect x="153" y="335" width="94" height="16" rx="6" fill="#8d6e63"/>
  <!-- Trunk -->
  <line x1="200" y1="335" x2="200" y2="200" stroke="#5d4037" stroke-width="10" stroke-linecap="round"/>
  <line x1="200" y1="250" x2="170" y2="190" stroke="#5d4037" stroke-width="6" stroke-linecap="round"/>
  <line x1="200" y1="230" x2="235" y2="170" stroke="#5d4037" stroke-width="6" stroke-linecap="round"/>
  <!-- Big fiddle-leaf fig leaves -->
  <g>
    <path d="M200 200 C200 170 175 140 165 110 C155 80 170 50 200 45 C230 50 245 80 235 110 C225 140 200 170 200 200Z" fill="url(#leaf2a)"/>
    <line x1="200" y1="200" x2="200" y2="50" stroke="#33691e" stroke-width="1.5" opacity="0.5"/>
    <path d="M170 190 C165 160 145 140 135 115 C125 90 140 65 165 60 C190 65 200 90 192 115 C184 140 170 160 170 190Z" fill="url(#leaf2b)"/>
    <path d="M235 170 C240 140 255 120 260 95 C265 70 250 50 230 48 C210 52 200 72 210 95 C218 118 230 140 235 170Z" fill="url(#leaf2a)" opacity="0.9"/>
    <path d="M185 160 C175 130 155 110 152 85 C148 60 165 42 185 40 C205 43 215 62 208 85 C200 108 190 130 185 160Z" fill="#689f38" opacity="0.8"/>
    <path d="M220 155 C228 125 248 108 255 83 C260 58 245 38 225 36 C205 40 198 58 205 83 C212 108 218 125 220 155Z" fill="url(#leaf2b)" opacity="0.85"/>
  </g>
  <circle cx="150" cy="100" r="70" fill="white" opacity="0.06"/>
</svg>